<?xml version="1.0" encoding="UTF-8"?>
<svg id="Layer_2" data-name="Layer 2" xmlns="http://www.w3.org/2000/svg" viewBox="0 0 1139.37 364.88">
  <defs>
    <style>
      .cls-1 {
        fill: none;
        stroke: #000;
        stroke-linecap: round;
        stroke-miterlimit: 10;
        stroke-width: 10px;
      }
    </style>
  </defs>
  <g id="Layer_4" data-name="Layer 4">
    <path class="cls-1" d="M161.19,156.61c26.68,19.66,80.21,20.37,124.18-32.4,14.66-17.59,43-53,48-82,15.46-89.68-31.3,4.96-58,52-63,111-159,230-218,258-58.58,27.8-71-26-22-65,135.44-107.8,232.5-117.5,234-112,1.5,3.5-54.27,7.76-68,50-13,40,27,17,51-12,18.03-21.79,17.5-26.5,16-26s-29,53,6,34c36.5-21.5,37-33,38.5-33.5s2,5-5.5,26.5c-8.5,28.5,38.5,4.5,54-15s-9.5,19.5-6,23,9.5,1.5,15-2c26-15,38-26,45-19s-1.5,26.5-2,31,3,12,26-6c20.5-14.5,37.5-13.5,38-12s-27-3-34.5,19.5c-2,19,38.5-10.5,39-9s-23,20,8.5,11.5c43-11,109.5-16.5,116-15,21.5,1.5-26.5,50.5-39.5,26.5-4-8,55.5-85.5,87.5-172.5,0,0-8,26,14,22s78-21,109-34c0,0,12-2,3,19s-42,89-57,128-49,112-57,131-20,29-20-5,5-81,6-105c.81-19.4-30,8-9,28s91.02-57.52,97-58c16-3-24,26,21,26,18,0,40-21,38-30s-9,24,7,24,38-23,38-14-4.02,17.34,0,16c6-2,19-23,26-21s8,14,15,18c10,2,18-9,36-13,13-4-10,15-8,17s21-16,29-16,7.5,6.21,23,11,132,14,169,14"/>
  </g>
</svg>