<?xml version="1.0" encoding="UTF-8"?>
<svg id="Layer_2" data-name="Layer 2" xmlns="http://www.w3.org/2000/svg" viewBox="0 0 408 25">
  <defs>
    <style>
      .cls-1 {
        fill: none;
        stroke: #000;
        stroke-miterlimit: 10;
        stroke-width: 3px;
      }
    </style>
  </defs>
  <g id="Layer_3" data-name="Layer 3">
    <path class="cls-1" d="M0,1.5c11.33,0,11.33,22,22.66,22S33.99,1.5,45.32,1.5s11.33,22,22.66,22S79.32,1.5,90.66,1.5s11.33,22,22.67,22S124.66,1.5,135.99,1.5s11.33,22,22.67,22S169.99,1.5,181.33,1.5s11.34,22,22.67,22"/>
    <path class="cls-1" d="M204,23.5c11.33,0,11.33-22,22.66-22s11.33,22,22.66,22,11.33-22,22.66-22,11.33,22,22.67,22,11.33-22,22.67-22,11.33,22,22.67,22,11.33-22,22.67-22,11.34,22,22.67,22,11.34-22,22.67-22"/>
  </g>
</svg>