<?xml version="1.0" encoding="UTF-8"?>
<svg id="Layer_2" data-name="Layer 2" xmlns="http://www.w3.org/2000/svg" viewBox="0 0 1421 542">
  <defs>
    <style>
      .cls-1 {
        fill: #cbefec;
      }

      .cls-1, .cls-2, .cls-3, .cls-4, .cls-5, .cls-6 {
        stroke-width: 0px;
      }

      .cls-2 {
        fill: #62bfaf;
      }

      .cls-3 {
        fill: #cbefec;
      }

      .cls-4 {
        fill: #358c98;
      }

      .cls-5 {
        fill: #a3eae5;
      }

      .cls-6 {
        fill: #97dda7;
      }
    </style>
  </defs>
  <g id="Layer_3" data-name="Layer 3">
    <g id="Mountains">
      <g>
        <polygon class="cls-3" points="409 180 505 159 524 155 548 143 570.73 151.89 602.06 131.35 617.92 144.03 628.93 147.17 670.45 121.71 715.3 70.1 756.78 126.87 770.24 133.41 789 121 814 149 832.97 151.96 853 149 888.75 164.78 914 166 976 173 1299.46 410 123.54 412 409 180"/>
        <polygon class="cls-3" points="789 121 770.24 133.41 780.14 133.41 785.29 140.46 790.05 132.64 786.57 131.9 789 121"/>
        <g>
          <polygon class="cls-3" points="602.06 131.35 595.87 145.45 586.36 149.33 602.06 147.52 586.36 155.23 570.67 152.33 602.06 131.35"/>
          <polygon class="cls-3" points="786.47 192.57 789.38 191.29 789.59 190.98 795.26 188.71 802.67 185.45 789.32 184.62 779.65 180.56 797.12 175.73 818.73 168.46 814.05 175.08 841.77 163.46 850.52 168.46 879.54 168.46 870.79 187.66 813.24 208.06 813.88 203.76 789 208.33 756.1 211.57 776.25 217.45 706 222 754.83 197.46 786.47 192.57"/>
        </g>
        <polygon class="cls-3" points="639.18 184.69 556.87 205.02 618.85 181.35 580.38 175.04 670.45 121.71 715.3 70.1 711.56 86.62 718.66 86.62 706.82 115.32 682.78 121.71 679.42 129.97 689.83 129.97 653.63 152.33 666.13 157.96 705 134 712.14 140.97 770.33 147.26 684 166 711.56 168.68 679.42 184.92 693.62 193.62 639.18 184.69"/>
      </g>
      <g>
        <polygon class="cls-5" points="409 180 505 159 524 155 548 143 570.73 151.89 602.06 131.35 617.92 144.03 628.93 147.17 670.45 121.71 715.3 70.1 756.78 126.87 770.24 133.41 789 121 814 149 832.97 151.96 853 149 888.75 164.78 914 166 976 173 1299.46 410 123.54 412 409 180"/>
        <polygon class="cls-1" points="789 121 770.24 133.41 780.14 133.41 785.29 140.46 790.05 132.64 786.57 131.9 789 121"/>
        <g>
          <polygon class="cls-3" points="602.06 131.35 595.87 145.45 586.36 149.33 602.06 147.52 586.36 155.23 570.67 152.33 602.06 131.35"/>
          <polygon class="cls-3" points="786.47 192.57 789.38 191.29 789.59 190.98 795.26 188.71 802.67 185.45 789.32 184.62 779.65 180.56 797.12 175.73 818.73 168.46 814.05 175.08 841.77 163.46 850.52 168.46 879.54 168.46 870.79 187.66 813.24 208.06 813.88 203.76 789 208.33 756.1 211.57 776.25 217.45 706 222 754.83 197.46 786.47 192.57"/>
        </g>
        <polygon class="cls-3" points="639.18 184.69 556.87 205.02 618.85 181.35 580.38 175.04 670.45 121.71 715.3 70.1 711.56 86.62 718.66 86.62 706.82 115.32 682.78 121.71 679.42 129.97 689.83 129.97 653.63 152.33 666.13 157.96 705 134 712.14 140.97 770.33 147.26 684 166 711.56 168.68 679.42 184.92 693.62 193.62 639.18 184.69"/>
      </g>
    </g>
    <g>
      <polygon class="cls-6" points="985 171 862 198 809 235 710 252 607 229 552 189 405 183 430 271.19 969.6 271.19 985 171"/>
      <polygon class="cls-2" points="1421 62 975 163 875 215 812 225 735 271 688 264 647 245 581 230 524 198 363 158 95 70 231.68 407.49 1190.9 407.49 1421 62"/>
      <polygon class="cls-4" points="326 183 467 205 563 256 613 258 650 281 677 279 718 293 758 287 784 269 854 261 924 214 1067 178 1421 6 1421 542 0 542 0 0 326 183"/>
    </g>
  </g>
</svg>