<?xml version="1.0" encoding="UTF-8"?>
<svg id="Layer_2" data-name="Layer 2" xmlns="http://www.w3.org/2000/svg" viewBox="0 0 1422 505">
  <defs>
    <style>
      .cls-1 {
        fill: #b1e27e;
        opacity: .78;
      }

      .cls-1, .cls-2, .cls-3 {
        stroke-width: 0px;
      }

      .cls-2 {
        fill: #126072;
      }

      .cls-3 {
        fill: #66b691;
      }
    </style>
  </defs>
  <g id="Layer_3" data-name="Layer 3">
    <g id="MIDGROUND">
      <polygon class="cls-3" points="638.86 277.33 520.24 290.97 1 274.81 0 505 1421 505 1419 274.81 738.47 274.81 638.86 277.33"/>
      <path class="cls-1" d="M830.7,305.73c-55.96-9.82-167.62-13.11-143.88-20.83,21.49-6.99,98.94-10.05,98.94-10.05l-47.73-.04-27.06.69c-19.1,1.29-53.12,4.7-61,12.94,1.05,8.07,15.72,9.01,44.93,14.64,28.86,5.57,83.79,10.6,71.01,13.87-44.37,9.41-672.91,72.04-672.91,72.04l440,1s306.26-39.45,340.02-66.73c5.21-4.21,3.66-9.47-42.32-17.54Z"/>
      <polygon class="cls-2" points="1103.77 169.78 951.68 206.16 950.94 206.42 947.51 197.41 943.19 209.12 930.45 213.56 925.67 200.08 919.77 217.28 869.75 234.7 865.73 224.17 861.45 235.77 857.08 224.31 850.81 241.3 846.41 242.84 843.52 235.28 839.9 245.1 815.43 253.63 811.76 244.02 807.15 256.51 806.3 256.81 800.19 240.8 792.51 261.61 792.32 261.68 790.45 261.85 786.48 251.44 783.04 260.76 778.91 249.92 773.96 263.35 754.74 265.1 751.65 256.99 748.67 265.06 745.6 256.99 741.34 268.53 737.49 270.18 733.48 259.66 729.93 269.26 727.69 263.38 722.86 276.45 720.47 277.48 717.97 270.93 714.62 279.98 694.89 288.44 810.49 289.96 777.17 298.54 1190.59 334.03 1421 400 1422 0 1103.77 169.78"/>
      <polygon class="cls-2" points="659.06 276.83 655.18 276.07 649.96 262.38 645.94 274.27 621.96 269.58 618.02 255.49 614.15 268.06 607.97 266.85 602.02 251.25 597.05 264.72 594.26 264.17 589.73 252.29 586.58 260.81 580.82 245.69 575.36 260.48 563 258.07 555.58 238.62 550.28 252.98 545.97 241.68 541.95 253.6 545.97 258.6 548.62 257.49 546.83 262.34 555.58 266.14 563.19 262.94 584.35 302.58 659.06 276.83"/>
      <g>
        <polygon class="cls-3" points="783.59 290.34 773.91 266.22 766.89 284.3 763.46 275.76 756.58 293.47 800.33 291.21 791.65 269.59 783.59 290.34"/>
        <polygon class="cls-3" points="857.16 284.97 851.22 298.15 843.38 279 833.62 303.62 867.24 306.65 857.16 284.97"/>
        <polygon class="cls-3" points="641.21 277.44 635.09 262.18 625.11 287.88 650.93 288.42 643.83 270.71 641.21 277.44"/>
        <polygon class="cls-3" points="609.19 289.43 623.17 289.43 616.06 271.72 609.19 289.43"/>
      </g>
      <polygon class="cls-2" points="693.38 303.59 687.58 302.58 681.27 286.04 675.91 300.56 671.24 299.76 661.3 273.68 655.16 290.29 649.72 276.03 642.78 294.83 640.88 294.5 521.57 239.07 515.52 223.21 511.4 234.35 477.84 218.76 470.76 216.93 466.72 206.34 463.76 215.11 309 189 1 0 0 400 723.16 317.73 693.38 303.59"/>
    </g>
  </g>
</svg>