<?xml version="1.0" encoding="UTF-8"?>
<svg id="Layer_2" data-name="Layer 2" xmlns="http://www.w3.org/2000/svg" viewBox="0 0 1477.6 224.31">
  <defs>
    <style>
      .cls-1 {
        fill: #ebf4dc;
      }

      .cls-1, .cls-2 {
        stroke-width: 0px;
      }

      .cls-2 {
        fill: #fff;
      }
    </style>
  </defs>
  <g id="Layer_3" data-name="Layer 3">
    <g id="MIDGROUND">
      <g id="Clouds">
        <g>
          <polygon class="cls-2" points="1044.22 44.97 1096.74 20.88 1149.83 24.79 1188.66 15.99 1209.75 20.55 1236.34 0 1338.48 5.9 1355.81 21.54 1381.66 14.01 1419.08 34.24 1443.12 35.75 1477.6 59.04 1255.22 63.62 1232.53 58.09 953.61 64.84 1044.22 44.97"/>
          <polygon class="cls-1" points="953.61 64.84 1064.3 48.55 1386.09 41.92 1477.6 59.04 1255.22 63.62 1232.53 58.09 953.61 64.84"/>
        </g>
        <g>
          <polygon class="cls-2" points="848.99 194.35 892 191.45 915 183.45 967 187.45 991 170.45 1023.28 166.62 1078 196.45 1099 191.45 1175.34 210.38 991.69 224.31 977.96 218.6 791 214.45 848.99 194.35"/>
          <polygon class="cls-1" points="788 214.45 876.41 207.77 1018.08 204.74 1175.34 210.38 991.69 224.31 977.96 218.6 788 214.45"/>
        </g>
        <g>
          <polygon class="cls-2" points="408 80.45 379 71.45 337 71.45 311 59.45 296 62.45 263 44.45 198 44.45 179 56.45 132.14 61.45 95.14 82.45 57 84.45 0 99.45 245.43 108.45 268 102.45 453 96.45 408 80.45"/>
          <polygon class="cls-1" points="453 96.45 351 89.45 114.14 89.45 3 99.45 245.43 108.45 268 102.45 453 96.45"/>
        </g>
      </g>
    </g>
  </g>
</svg>