<?xml version="1.0" encoding="UTF-8"?>
<svg id="Layer_2" data-name="Layer 2" xmlns="http://www.w3.org/2000/svg" viewBox="0 0 1422 410">
  <defs>
    <style>
      .cls-1 {
        fill: #046;
        stroke-width: 0px;
      }
    </style>
  </defs>
  <g id="Layer_3" data-name="Layer 3">
    <polygon id="FOREGROUND" class="cls-1" points="1010.15 146.89 1002.1 125.4 992.21 152.69 956.37 164.28 949.41 168.35 938.59 139.47 924.68 177.84 917.01 157.35 903.22 195.38 877.51 210.42 865.4 178.09 852.59 213.43 846.34 196.74 831.69 237.14 831.78 237.18 827.64 239.6 814.41 204.29 801.46 240.03 799.34 239.78 788.58 211.04 780.92 232.16 776.24 219.65 769.96 236.97 731.64 247.98 721.95 222.09 711.25 251.59 699.95 221.42 685.96 260.01 674.51 253.96 675.21 253.66 662.38 219.42 654.6 240.88 640.89 204.27 631.17 231.08 578.29 203.16 568.74 201.46 555.46 174.73 549.18 187.81 536.28 153.39 521.88 193.11 501.12 189.41 488.95 156.94 478.63 185.41 416.76 174.38 404.44 168.06 392.32 135.72 384.34 157.74 234.38 80.77 1 0 0 410 1421 410 1422 1 1191 111 1010.15 146.89"/>
  </g>
</svg>